# xmcd
#
# Track frame offsets:
#	150
#	18050
#	36978
#	59140
#	73368
#	94988
#	113173
#	133323
#	146578
#	164768
#
# Disc length: 2426 seconds
#
# Revision: 0
# Processed by: cddbd v1.5.2PL0 Copyright (c) Steve Scherf et al.
# Submitted via: EasyCDDAExtractor 8.2.3.1
#
DISCID=9f09780a
DTITLE=John Michael Montgomery - Leave A Mark
DYEAR=1998
DGENRE=Country
TTITLE0=Cover You In Kisses
TTITLE1=Hold On To Me
TTITLE2=Little Cowboy's Cry
TTITLE3=It Gets Me Every Time
TTITLE4=I Don't Want This Song To End
TTITLE5=Love Working On You
TTITLE6=I Couldn't Dream
TTITLE7=You're The Ticket
TTITLE8=I Never Stopped Lovin' You
TTITLE9=This One' Gonna Leave A Mark
EXTD=
EXTT0=
EXTT1=
EXTT2=
EXTT3=
EXTT4=
EXTT5=
EXTT6=
EXTT7=
EXTT8=
EXTT9=
PLAYORDER=
